# xmcd
#
# Track frame offsets: 
#        187
#        22582
#        41897
#        63755
#        86145
#        104995
#        122407
#        140670
#        157782
#        184292
#
# Disc length: 2692 seconds
#
# Revision: 1
# Processed by: cddbd v1.5.2PL0 Copyright (c) Steve Scherf et al.
# Submitted via: ExactAudioCopy v1.0b3
#
DISCID=820a820a
DTITLE=吉川晃司 - GLAMOROUS JUMP
DYEAR=1987
DGENRE=Rock
TTITLE0=踊れよRain
TTITLE1=HOT LIPS
TTITLE2=JUST A LIFE
TTITLE3=BIRTHDAY SYMPHONY
TTITLE4=Little Darlin'
TTITLE5=GLAMOROUS JUMP
TTITLE6=HONEY PIE
TTITLE7=恋をしようぜ!!
TTITLE8=LAYLA
TTITLE9=BACK TO ZERO
EXTD=YEAR: 1987
EXTT0=
EXTT1=
EXTT2=
EXTT3=
EXTT4=
EXTT5=
EXTT6=
EXTT7=
EXTT8=
EXTT9=
PLAYORDER=
